<svg width="420" height="420" viewBox="0 0 420 420" fill="none" xmlns="http://www.w3.org/2000/svg" role="img" aria-labelledby="title desc">
  <title id="title">SREE HOMOEO CLINIC logo</title>
  <desc id="desc">A premium floral clinic emblem with homoeopathy medicine bottle and globules.</desc>
  <rect width="420" height="420" rx="96" fill="#F4F7F2"/>
  <circle cx="210" cy="164" r="104" fill="#FFFDF9" stroke="#2D6261" stroke-width="8"/>
  <path d="M155 142C126 123 121 88 145 58C181 74 192 111 171 145" fill="#2D6261"/>
  <path d="M265 142C294 123 299 88 275 58C239 74 228 111 249 145" fill="#2D6261"/>
  <path d="M150 204C117 207 93 184 92 145C132 136 165 154 173 191" fill="#2D6261"/>
  <path d="M270 204C303 207 327 184 328 145C288 136 255 154 247 191" fill="#2D6261"/>
  <path d="M176 250C148 268 114 259 95 226C126 199 164 203 187 231" fill="#2D6261"/>
  <path d="M244 250C272 268 306 259 325 226C294 199 256 203 233 231" fill="#2D6261"/>
  <path d="M210 93C240 120 263 152 263 188C263 224 240 252 210 252C180 252 157 224 157 188C157 152 180 120 210 93Z" fill="#D8A4A1"/>
  <path d="M205 118C188 142 200 160 218 176C240 196 238 218 213 238" stroke="#F9F3EB" stroke-width="16" stroke-linecap="round"/>
  <path d="M198 153C212 148 228 153 239 166" stroke="#F9F3EB" stroke-width="10" stroke-linecap="round"/>
  <g filter="url(#shadow)">
    <rect x="171" y="198" width="78" height="92" rx="18" fill="#F9F3EB" stroke="#2D6261" stroke-width="6"/>
    <path d="M190 184H230V204H190V184Z" fill="#2D6261"/>
    <rect x="195" y="170" width="30" height="18" rx="6" fill="#D8A4A1" stroke="#2D6261" stroke-width="5"/>
    <path d="M188 236H232" stroke="#D8A4A1" stroke-width="6" stroke-linecap="round"/>
    <path d="M193 252H227" stroke="#D8A4A1" stroke-width="6" stroke-linecap="round"/>
    <circle cx="280" cy="260" r="12" fill="#FFFDF9" stroke="#2D6261" stroke-width="5"/>
    <circle cx="306" cy="245" r="10" fill="#FFFDF9" stroke="#2D6261" stroke-width="5"/>
    <circle cx="303" cy="277" r="9" fill="#FFFDF9" stroke="#2D6261" stroke-width="5"/>
  </g>
  <text x="210" y="338" text-anchor="middle" fill="#2D6261" font-family="Georgia, 'Times New Roman', serif" font-size="44" font-weight="700" letter-spacing="3">SREE</text>
  <text x="210" y="374" text-anchor="middle" fill="#D8A4A1" font-family="Arial, Helvetica, sans-serif" font-size="22" font-weight="700" letter-spacing="7">HOMOEO CLINIC</text>
  <defs>
    <filter id="shadow" x="153" y="154" width="174" height="151" filterUnits="userSpaceOnUse" color-interpolation-filters="sRGB">
      <feDropShadow dx="0" dy="8" stdDeviation="8" flood-color="#173B38" flood-opacity="0.16"/>
    </filter>
  </defs>
</svg>
